<svg viewBox="0 0 349.99999999999994 187.212955550326" height="187.212955550326" width="349.99999999999994" style="width: 350px; height: 187.213px; position: absolute; top: 50%; left: 50%; z-index: 0; cursor: pointer; overflow: visible; transform: translate(-50%, -50%) scale(0.548571);"><defs id="SvgjsDefs1861"></defs><g id="SvgjsG1862" featurekey="pxMwYC-0" transform="matrix(0.4736828627811521,0,0,0.4736828627811521,105,-0.031578375663617764)" fill="#01696e"><defs xmlns="http://www.w3.org/2000/svg"></defs><g xmlns="http://www.w3.org/2000/svg"><path class="fil0" d="M110 32c80,-71 205,-6 183,26 9,26 -33,46 -66,61 -24,12 -44,15 -62,12 -18,-2 -35,-4 -49,-7 -10,14 -29,2 -44,-1 -28,-5 -23,18 -2,21 10,2 23,2 35,2 22,-1 43,-1 46,12 2,9 -6,15 -22,19 -14,3 -34,5 -60,6 -3,18 -15,18 -30,18 -18,-3 -15,-2 -16,-10 -6,-1 -12,-1 -19,-2l-4 -21 5 -5 17 2c2,-2 5,-4 7,-6 0,0 0,0 0,0 7,0 15,1 22,2 10,1 16,7 17,14 26,-1 46,-3 59,-6 11,-2 17,-5 16,-9 -1,-7 -19,-7 -38,-6 -12,0 -26,0 -36,-2 -34,-6 -33,-43 4,-37 10,2 23,9 32,6 -9,-2 -17,-5 -22,-8 -5,-6 -7,-10 -5,-13 -18,-16 20,-57 32,-68zm13 -3c26,-3 80,1 98,21 19,-5 37,3 50,-6l0 0c4,-3 4,-7 8,-6 5,3 0,18 -33,17 -7,-1 -14,-1 -21,1l3 10c18,-7 74,3 59,-22l0 0c-2,-5 -7,-9 -13,-14l0 0c-37,-28 -109,-33 -151,-1zm35 6c-3,3 -6,5 -9,8 -1,-1 -3,-3 -5,-3 2,-2 3,-4 5,-6 -13,0 -26,1 -36,3 -9,5 -28,33 -33,46l0 0c-4,13 6,17 28,21 0,-2 1,-4 1,-6 -8,-2 -23,-3 -22,-8 1,-5 16,0 24,2 2,-5 3,-9 6,-13 1,1 3,3 5,4 -2,3 -3,7 -5,10 96,18 58,-17 93,-38l0 0c2,-1 3,-1 5,-2 -11,-10 -31,-16 -57,-18zm61 23c-41,17 2,61 -103,41 -1,2 -1,4 -2,6 3,1 6,1 9,2l0 0c89,11 56,-1 97,-37 0,-5 1,-6 -1,-12zm-74 11c-7,10 -17,14 -24,9 0,0 0,0 -1,0 6,0 14,-4 19,-11 6,-9 7,-20 2,-25 12,2 9,19 4,27zm-7 -22c0,14 -7,23 -19,25 0,0 0,0 0,0 -5,-3 -5,-12 0,-19 4,-6 14,-13 19,-6z" style="fill: #01696e; fill-rule: nonzero;"></path></g></g><g id="SvgjsG1863" featurekey="Vx5QiU-0" transform="matrix(3.0058400514794137,0,0,3.0058400514794137,-2.585022308109154,101.1130193061562)" fill="#04292a"><path d="M9.72 18.9 q-0.38 0.52 -1.31 0.93 t-2.03 0.41 q-1.7 0 -2.95 -0.76 t-1.91 -2.07 t-0.66 -2.91 t0.66 -2.91 t1.91 -2.07 t2.95 -0.76 q1.14 0 2.01 0.39 t1.33 0.99 l0 -1.14 l2.96 0 l0 11 l-2.96 0 l0 -1.1 z M9.02 12.25 q-0.82 -0.87 -2.2 -0.87 q-1.4 0 -2.21 0.87 t-0.81 2.25 q0 1.34 0.83 2.22 t2.19 0.88 q1.4 0 2.21 -0.83 t0.81 -2.27 q0 -1.38 -0.82 -2.25 z M24.85 10.02 q1.03 1.22 1.03 3.48 l0 6.5 l-3.06 0 l0 -6.5 q0 -2.22 -2.12 -2.22 q-0.82 0 -1.48 0.65 t-0.62 2.25 l0 5.82 l-2.98 0 l0 -11 l2.98 0 l0 0.98 q0.54 -0.54 1.36 -0.86 t1.58 -0.32 q2.28 0 3.31 1.22 z M31.82 4.880000000000001 l0 8.8 l3.74 -4.62 l3.66 0 l-4.42 5.12 l4.6 5.82 l-3.62 0 l-2.88 -3.6 l-1.08 1.24 l0 2.36 l-3 0 l0 -15.12 l3 0 z M43.980000000000004 7.369999999999999 q-0.48 0.47 -1.16 0.47 q-0.7 0 -1.19 -0.47 t-0.49 -1.15 q0 -0.66 0.49 -1.13 t1.19 -0.47 q0.68 0 1.16 0.47 t0.48 1.13 q0 0.68 -0.48 1.15 z M41.32000000000001 9.02 l3 0 l0 10.98 l-3 0 l0 -10.98 z M50.980000000000004 16.08 q0 0.7 0.24 1.17 t1.12 0.47 q0.4 0 0.76 -0.04 l0 2.52 q-0.72 0.08 -1.34 0.08 q-1.28 0 -2.07 -0.21 t-1.23 -0.81 t-0.44 -1.72 l0 -6.1 l-1.34 0 l0 -2.62 l1.34 0 l0 -2.94 l2.96 0 l0 2.94 l2.2 0 l0 2.62 l-2.2 0 l0 4.64 z M61.48000000000001 20 l0 -15.12 l2.96 0 l0 5.26 q0.46 -0.6 1.33 -0.99 t2.01 -0.39 q1.7 0 2.95 0.76 t1.91 2.07 t0.66 2.91 t-0.66 2.91 t-1.91 2.07 t-2.95 0.76 q-1.1 0 -2.03 -0.41 t-1.31 -0.93 l0 1.1 l-2.96 0 z M65.13000000000001 16.77 q0.81 0.83 2.21 0.83 q1.36 0 2.19 -0.88 t0.83 -2.22 q0 -1.38 -0.81 -2.25 t-2.21 -0.87 q-1.38 0 -2.2 0.87 t-0.82 2.25 q0 1.44 0.81 2.27 z M84.99000000000001 10.02 q1.03 1.22 1.03 3.48 l0 6.5 l-3.04 0 l0 -6.5 q0 -1.18 -0.59 -1.7 t-1.55 -0.52 q-0.82 0 -1.48 0.65 t-0.62 2.25 l0 5.82 l-2.98 0 l0 -15.14 l2.98 0 l0 5.12 q0.54 -0.54 1.36 -0.86 t1.58 -0.32 q2.28 0 3.31 1.22 z M97.28000000000002 18.9 q-0.38 0.52 -1.31 0.93 t-2.03 0.41 q-1.7 0 -2.95 -0.76 t-1.91 -2.07 t-0.66 -2.91 t0.66 -2.91 t1.91 -2.07 t2.95 -0.76 q1.14 0 2.01 0.39 t1.33 0.99 l0 -1.14 l2.96 0 l0 11 l-2.96 0 l0 -1.1 z M96.58000000000001 12.25 q-0.82 -0.87 -2.2 -0.87 q-1.4 0 -2.21 0.87 t-0.81 2.25 q0 1.34 0.83 2.22 t2.19 0.88 q1.4 0 2.21 -0.83 t0.81 -2.27 q0 -1.38 -0.82 -2.25 z M106.90000000000002 16.08 q0 0.7 0.24 1.17 t1.12 0.47 q0.4 0 0.76 -0.04 l0 2.52 q-0.72 0.08 -1.34 0.08 q-1.28 0 -2.07 -0.21 t-1.23 -0.81 t-0.44 -1.72 l0 -6.1 l-1.34 0 l0 -2.62 l1.34 0 l0 -2.94 l2.96 0 l0 2.94 l2.2 0 l0 2.62 l-2.2 0 l0 4.64 z M115.10000000000002 16.08 q0 0.7 0.24 1.17 t1.12 0.47 q0.4 0 0.76 -0.04 l0 2.52 q-0.72 0.08 -1.34 0.08 q-1.28 0 -2.07 -0.21 t-1.23 -0.81 t-0.44 -1.72 l0 -6.1 l-1.34 0 l0 -2.62 l1.34 0 l0 -2.94 l2.96 0 l0 2.94 l2.2 0 l0 2.62 l-2.2 0 l0 4.64 z"></path></g></svg>